<!--?xml version="1.0" encoding="utf-8"?-->
<!-- Generator: Adobe Illustrator 18.1.1, SVG Export Plug-In . SVG Version: 6.00 Build 0)  -->

<svg version="1.1" id="_x32_" xmlns="http://www.w3.org/2000/svg" xmlns:xlink="http://www.w3.org/1999/xlink" x="0px" y="0px" viewBox="0 0 512 512" style="width: 256px; height: 256px; opacity: 1;" xml:space="preserve">
<style type="text/css">
	.st0{fill:#4B4B4B;}
</style>
<g>
	<path class="st0" d="M226.135,172.109l0.1-29.402c-0.462-0.432-0.947-0.824-1.386-1.264
		c-12.506-12.521-20.207-29.693-20.215-48.785c0.008-19.092,7.709-36.264,20.215-48.793c12.522-12.506,29.695-20.201,48.786-20.209
		c19.091,0.008,36.264,7.703,48.786,20.209c12.507,12.529,20.208,29.701,20.215,48.793c-0.008,18.428-7.224,35.023-18.967,47.416
		l0.068,30.449c25.575-16.488,42.548-45.16,42.556-77.865C366.285,41.476,324.808,0.008,273.634,0
		c-51.172,0.008-92.65,41.476-92.658,92.658C180.984,126.449,199.12,155.922,226.135,172.109z" style="fill: rgb(255, 255, 255);"></path>
	<path class="st0" d="M372.554,260.762c-29.387,32.322-37.373,38.814-37.373,38.814c-5.429,5.182-13.416,6.623-20.316,3.674
		c-6.892-2.957-11.367-9.734-11.367-17.236l-0.446-194.781v3.545c-2.811-18.322-14.039-27.301-28.085-27.301
		c-15.51,0-28.078,12.574-28.078,28.086l-0.462,141.15l-114.344,29.572c-31.974,13.707-48.023,49.688-36.864,82.631l28.594,107.26
		V512h185.563v-55.824c0,0,95.9-144.687,105.78-158.687C432.79,272.524,401.933,228.442,372.554,260.762z" style="fill: rgb(255, 255, 255);"></path>
</g>
</svg>
